<svg width="64" height="22" viewBox="0 0 64 22" fill="none" xmlns="http://www.w3.org/2000/svg">
<path d="M34.228 21.0513C34.0311 21.0513 33.8521 21.0122 33.6909 20.9341C33.5314 20.856 33.4028 20.738 33.3052 20.5801C33.2091 20.4222 33.1562 20.2244 33.1465 19.9868L33.1514 19.9722H33.6128C33.6193 20.2114 33.6738 20.3872 33.7764 20.4995C33.8805 20.6118 34.0286 20.668 34.2207 20.668C34.3558 20.668 34.4665 20.6395 34.5527 20.5825C34.639 20.5239 34.7025 20.4442 34.7432 20.3433C34.7855 20.2407 34.8066 20.1235 34.8066 19.9917V17.8237L34.333 17.7603V17.4453H35.6855V17.7554L35.2876 17.8237V19.9917C35.2876 20.2033 35.2469 20.3888 35.1655 20.5483C35.0858 20.7078 34.967 20.8315 34.8091 20.9194C34.6528 21.0073 34.4591 21.0513 34.228 21.0513ZM36.0542 21V20.6924L36.4521 20.624V17.8237L36.0542 17.7554V17.4453H38.686V18.2998H38.3003L38.2466 17.8164H36.9331V18.9736H38.2441V19.3521H36.9331V20.6387H38.3247L38.3784 20.1479H38.7617V21H36.0542ZM40.3511 21L39.521 17.792L39.2207 17.7554V17.4453H40.373V17.7554L40.0044 17.8115L40.4683 19.7671L40.5757 20.2236L40.5903 20.2261L40.7319 19.7695L41.4473 17.4453H41.8696L42.5923 19.7695L42.7314 20.2529H42.7461L42.873 19.7695L43.332 17.8115L42.9341 17.7554V17.4453H44.0669V17.7554L43.7861 17.792L42.9902 21H42.5337L41.7622 18.5391L41.6646 18.1802H41.6499L41.5547 18.5391L40.7808 21H40.3511ZM44.4429 21V20.6924L44.8408 20.624V17.8237L44.4429 17.7554V17.4453H47.0747V18.2998H46.689L46.6353 17.8164H45.3218V18.9736H46.6328V19.3521H45.3218V20.6387H46.7134L46.7671 20.1479H47.1504V21H44.4429ZM47.6313 21V20.6924L48.0293 20.624V17.8237L47.6313 17.7554V17.4453H48.0293H48.5103H48.9082V17.7554L48.5103 17.8237V20.6313H49.7676L49.8237 20.0698H50.1924V21H47.6313ZM50.5854 21V20.6924L50.9834 20.624V17.8237L50.5854 17.7554V17.4453H50.9834H51.4644H51.8623V17.7554L51.4644 17.8237V20.6313H52.7217L52.7778 20.0698H53.1465V21H50.5854ZM53.5396 21V20.6924L53.9375 20.624V17.8237L53.5396 17.7554V17.4453H56.1714V18.2998H55.7856L55.7319 17.8164H54.4185V18.9736H55.7295V19.3521H54.4185V20.6387H55.8101L55.8638 20.1479H56.2471V21H53.5396ZM56.728 21V20.6924L57.126 20.624V17.8237L56.728 17.7554V17.4478H58.3125C58.5713 17.4478 58.7894 17.4868 58.9668 17.5649C59.1458 17.6414 59.2817 17.7529 59.3745 17.8994C59.4673 18.0459 59.5137 18.2249 59.5137 18.4365C59.5137 18.6449 59.4681 18.8198 59.377 18.9614C59.2874 19.103 59.1597 19.2104 58.9937 19.2837C58.8276 19.3553 58.6307 19.3936 58.4028 19.3984L57.6069 19.4131V20.624L58.0049 20.6924V21H56.728ZM59.0742 21L58.2832 19.2251L58.7642 19.2202L59.4209 20.6411L59.6675 20.6851V21H59.0742ZM57.6069 19.0347H58.2637C58.5322 19.0347 58.7275 18.9834 58.8496 18.8809C58.9717 18.7783 59.0327 18.6286 59.0327 18.4316C59.0327 18.2445 58.9741 18.0964 58.8569 17.9873C58.7397 17.8783 58.5583 17.8237 58.3125 17.8237H57.6069V19.0347ZM60.8174 21V20.6924L61.2153 20.624V19.7061L60.1216 17.8018L59.8286 17.7554V17.4453H61.0542V17.7554L60.6489 17.8018L61.4033 19.1982L61.4546 19.2935L61.457 19.2886L61.5059 19.1982L62.2969 17.8018L61.877 17.7554V17.4453H63.0781V17.7554L62.7681 17.8018L61.6938 19.6694V20.624L62.0918 20.6924V21H60.8174Z" fill="white"/>
<path d="M0.711914 15V13.8926L2.14453 13.6465V3.56543L0.711914 3.31934V2.20312H2.14453H6.23145C7.56738 2.20312 8.61035 2.49316 9.36035 3.07324C10.1162 3.64746 10.4941 4.51172 10.4941 5.66602C10.4941 6.23438 10.3125 6.74414 9.94922 7.19531C9.5918 7.64062 9.11719 7.97168 8.52539 8.18848C9.04102 8.29395 9.4834 8.50195 9.85254 8.8125C10.2217 9.11719 10.5059 9.49219 10.7051 9.9375C10.9102 10.377 11.0127 10.8604 11.0127 11.3877C11.0127 12.5596 10.6318 13.4561 9.87012 14.0771C9.1084 14.6924 8.07715 15 6.77637 15H0.711914ZM3.87598 13.6465H6.77637C7.56738 13.6465 8.17969 13.4531 8.61328 13.0664C9.05273 12.6738 9.27246 12.1201 9.27246 11.4053C9.27246 10.9014 9.19043 10.4707 9.02637 10.1133C8.86816 9.75586 8.62207 9.48047 8.28809 9.28711C7.95996 9.09375 7.54395 8.99707 7.04004 8.99707H3.87598V13.6465ZM3.87598 7.64355H6.67969C7.30078 7.64355 7.80176 7.46484 8.18262 7.10742C8.56934 6.74414 8.7627 6.25195 8.7627 5.63086C8.7627 4.93945 8.5459 4.42383 8.1123 4.08398C7.67871 3.73828 7.05176 3.56543 6.23145 3.56543H3.87598V7.64355ZM12.3311 15V13.8926L13.7637 13.6465V3.56543L12.3311 3.31934V2.20312H21.8057V5.2793H20.417L20.2236 3.53906H15.4951V7.70508H20.2148V9.06738H15.4951V13.6992H20.5049L20.6982 11.9326H22.0781V15H12.3311ZM28.4238 15.1846C27.6445 15.1846 26.8945 15.0703 26.1738 14.8418C25.4531 14.6133 24.7646 14.2617 24.1084 13.7871V11.0537H25.4531L25.7432 13.0664C26.124 13.3008 26.5371 13.4824 26.9824 13.6113C27.4277 13.7402 27.9082 13.8047 28.4238 13.8047C29.0098 13.8047 29.5049 13.7168 29.9092 13.541C30.3193 13.3594 30.6328 13.1104 30.8496 12.7939C31.0664 12.4775 31.1748 12.1084 31.1748 11.6865C31.1748 11.2939 31.0811 10.9482 30.8936 10.6494C30.7061 10.3506 30.3955 10.0898 29.9619 9.86719C29.5342 9.63867 28.9482 9.43945 28.2041 9.26953C27.3252 9.06445 26.5811 8.79199 25.9717 8.45215C25.3682 8.10645 24.9082 7.69043 24.5918 7.2041C24.2812 6.71191 24.126 6.14941 24.126 5.5166C24.126 4.84863 24.3018 4.25098 24.6533 3.72363C25.0107 3.19629 25.5059 2.78027 26.1387 2.47559C26.7715 2.1709 27.5098 2.01855 28.3535 2.01855C29.25 2.01855 30.041 2.15625 30.7266 2.43164C31.418 2.70117 31.9863 3.0293 32.4316 3.41602V5.97363H31.0869L30.7969 4.14551C30.5332 3.93457 30.2051 3.75879 29.8125 3.61816C29.4199 3.47754 28.9336 3.40723 28.3535 3.40723C27.8613 3.40723 27.4277 3.49512 27.0527 3.6709C26.6777 3.84082 26.3848 4.08105 26.1738 4.3916C25.9629 4.70215 25.8574 5.06836 25.8574 5.49023C25.8574 5.85938 25.9512 6.18164 26.1387 6.45703C26.332 6.73242 26.6426 6.97559 27.0703 7.18652C27.5039 7.3916 28.0811 7.58496 28.8018 7.7666C30.1494 8.10059 31.1689 8.5957 31.8604 9.25195C32.5576 9.90234 32.9062 10.708 32.9062 11.6689C32.9062 12.3545 32.7217 12.9639 32.3525 13.4971C31.9834 14.0244 31.4619 14.4375 30.7881 14.7363C30.1201 15.0352 29.332 15.1846 28.4238 15.1846ZM34.4092 15V13.8926L35.8418 13.6465V3.56543L34.4092 3.31934V2.20312H39.0059V3.31934L37.5732 3.56543V13.6465L39.0059 13.8926V15H34.4092ZM40.4385 15V13.8926L41.8711 13.6465V3.56543L40.4385 3.31934V2.21191H46.1426C47.0742 2.21191 47.8594 2.35254 48.498 2.63379C49.1426 2.90918 49.6318 3.31055 49.9658 3.83789C50.2998 4.36523 50.4668 5.00977 50.4668 5.77148C50.4668 6.52148 50.3027 7.15137 49.9746 7.66113C49.6523 8.1709 49.1924 8.55762 48.5947 8.82129C47.9971 9.0791 47.2881 9.2168 46.4678 9.23438L43.6025 9.28711V13.6465L45.0352 13.8926V15H40.4385ZM48.8848 15L46.0371 8.61035L47.7686 8.59277L50.1328 13.708L51.0205 13.8662V15H48.8848ZM43.6025 7.9248H45.9668C46.9336 7.9248 47.6367 7.74023 48.0762 7.37109C48.5156 7.00195 48.7354 6.46289 48.7354 5.75391C48.7354 5.08008 48.5244 4.54688 48.1025 4.1543C47.6807 3.76172 47.0273 3.56543 46.1426 3.56543H43.6025V7.9248ZM52.6201 15V13.8926L54.0527 13.6465V3.56543L52.6201 3.31934V2.20312H62.0947V5.2793H60.7061L60.5127 3.53906H55.7842V7.70508H60.5039V9.06738H55.7842V13.6992H60.7939L60.9873 11.9326H62.3672V15H52.6201Z" fill="#F80E0E"/>
<path d="M23.791 15V13.6904L30.4443 3.55664H25.4697L25.3115 5.20898H23.9229V2.20312H32.4395V3.47754L25.751 13.6553H31.1914L31.3496 11.8359H32.7295V15H23.791Z" fill="white"/>
</svg>
